# xmcd
#
# Track frame offsets:
#	150
#	19362
#	36372
#	56064
#	70528
#	89834
#	105977
#	129048
#	140911
#	157900
#	174713
#	192574
#	206054
#
# Disc length: 2957 seconds
#
# Revision: 1
# Processed by: cddbd v1.5.2PL0 Copyright (c) Steve Scherf et al.
# Submitted via: audiograbber 1.83.01
#
DISCID=bd0b8b0d
DTITLE=Valerie Thompson - Every Dream
DYEAR=2005
DGENRE=Country
TTITLE0=One Night With You
TTITLE1=What's A Girl Gotta Do
TTITLE2=Forever Yours
TTITLE3=If You're Passing By
TTITLE4=Don't Forget To Breathe
TTITLE5=I'll Slow Down
TTITLE6=Breaking Away
TTITLE7=Life Goes On
TTITLE8=Your Every Dream
TTITLE9=Living Without You
TTITLE10=You've Never Been Gone
TTITLE11=In The Stars
TTITLE12=Green Pastures
EXTD=2005
EXTT0=
EXTT1=
EXTT2=
EXTT3=
EXTT4=
EXTT5=
EXTT6=
EXTT7=
EXTT8=
EXTT9=
EXTT10=
EXTT11=
EXTT12=
PLAYORDER=
